# xmcd
#
# Track frame offsets: 
#        150
#        20705
#        39825
#        54690
#        68777
#        84137
#        100475
#        116935
#        133155
#        147580
#        162562
#        178027
#        193842
#        218975
#
# Disc length: 4440 seconds
#
# Revision: 1
# Processed by: cddbd v1.5.2PL0 Copyright (c) Steve Scherf et al.
# Submitted via: ExactAudioCopyFreeDBPlugin 1.0
#
DISCID=d811560e
DTITLE=breaking benjamin - WE ARE NOT ALONE
DYEAR=2004
DGENRE=Heavy Rock
TTITLE0=So Cold
TTITLE1=Simple Design
TTITLE2=Follow
TTITLE3=Firefly
TTITLE4=Break My Fall
TTITLE5=Forget It
TTITLE6=Sooner Or Later
TTITLE7=Breakdown
TTITLE8=Away
TTITLE9=Believe
TTITLE10=Rain
TTITLE11=Ordinary Man
TTITLE12=Lady Bug
TTITLE13=data track 14
EXTD=YEAR: 2004
EXTT0=
EXTT1=
EXTT2=
EXTT3=
EXTT4=
EXTT5=
EXTT6=
EXTT7=
EXTT8=
EXTT9=
EXTT10=
EXTT11=
EXTT12=
EXTT13=
PLAYORDER=
